<svg id="dairy-free" xmlns="http://www.w3.org/2000/svg" viewBox="0 0 98.56 98.56"><defs><style>.cls-1{fill:#ffb957;}.cls-2{fill:#4d5152;}.cls-3{fill:#fff;}.cls-4{fill:#a1d9b1;}.cls-5{fill:#fffde3;}.cls-6{fill:#e6e6e6;}</style></defs><title>dairy</title><circle class="cls-1" cx="49.28" cy="49.28" r="48"/><path class="cls-2" d="M49.28,98.56A49.28,49.28,0,1,1,98.56,49.28,49.34,49.34,0,0,1,49.28,98.56Zm0-96A46.72,46.72,0,1,0,96,49.28,46.77,46.77,0,0,0,49.28,2.56Z"/><g id="dairy-free-milk"><g id="dairy-free-milk-icon"><path class="cls-3" d="M60.47,28.2l-2.07-2.88H38.94l1.83,2.78,4.1,6.23h20C63.69,32.66,61.9,30.18,60.47,28.2Z"/><path class="cls-3" d="M43.89,35.61L43.35,80H66.87V35.61h-23Z"/><path class="cls-3" d="M38.37,18.56V24H60.08V18.56H38.37Z"/></g><path class="cls-3" d="M45.16,34.33H44.87l-4.1-6.23-1.83-2.78H58.39l2.07,2.88c1.43,2,3.22,4.46,4.41,6.13H45.16Z"/><path class="cls-3" d="M43.35,80H66.87V35.61h-23"/><path class="cls-4" d="M66.13,64.11c-7-5.88-14.58,5.88-21.55,0V46.83c7,5.88,14.58-5.88,21.55,0V64.11Z"/><path class="cls-2" d="M48.74,49.24a8.39,8.39,0,0,1-5.62-2.07,1.28,1.28,0,0,1,1.65-2c2.93,2.47,6.14,1.37,9.85.09,3.89-1.34,8.29-2.85,12.34.55a1.28,1.28,0,0,1-1.65,2c-2.93-2.47-6.14-1.37-9.85-.09A21.16,21.16,0,0,1,48.74,49.24Z"/><path class="cls-2" d="M48.49,67.08a8,8,0,0,1-5.37-2,1.28,1.28,0,0,1,1.65-2c2.9,2.45,6.1,1.21,9.81-.22,3.9-1.5,8.31-3.21,12.38.22a1.28,1.28,0,1,1-1.65,2c-2.9-2.45-6.1-1.21-9.81.22A20.13,20.13,0,0,1,48.49,67.08Z"/><circle class="cls-5" cx="55.47" cy="55.06" r="4.8"/><path class="cls-2" d="M55.47,61.14a6.08,6.08,0,1,1,6.08-6.08A6.09,6.09,0,0,1,55.47,61.14Zm0-9.6A3.52,3.52,0,1,0,59,55.06,3.52,3.52,0,0,0,55.47,51.54Z"/><polygon class="cls-2" points="68.15 81.28 43.35 81.28 43.35 78.72 65.58 78.72 65.58 36.9 43.89 36.9 43.89 34.34 68.15 34.34 68.15 81.28"/><path class="cls-3" d="M60.08,18.56H38.37V24H60.08V18.56Z"/><path class="cls-2" d="M61.36,25.32H37.09v-8H61.36v8ZM39.65,22.76H58.8V19.84H39.65v2.92Z"/><path class="cls-2" d="M66.06,36c-0.63-1-3.5-4.93-5.59-7.83-1.5-2.07-2.22-3.07-2.35-3.27l2.14-1.4c0.12,0.18,1.17,1.63,2.28,3.17,2.11,2.92,5,6.91,5.65,7.92Z"/><path class="cls-6" d="M43.87,35.15l-6.14-9.32c-0.8,1.23-5.34,8-6.31,9.44"/><path class="cls-2" d="M32.5,36l-2.14-1.41c0.49-.74,1.89-2.84,3.27-4.89s2.64-3.94,3-4.55l1.07-1.63,3,4.58,4.19,6.37-2.14,1.4-4.19-6.37-0.88-1.34-2,3C34.39,33.14,33,35.23,32.5,36Z"/><path class="cls-6" d="M43.88,35.61H31.59V80H43.88V35.61Z"/><path class="cls-2" d="M45.16,81.28H30.31V34.33H45.16V81.28ZM32.87,78.72H42.6V36.89H32.87V78.72Z"/></g></svg>