<svg id="egg-free" xmlns="http://www.w3.org/2000/svg" viewBox="0 0 98.56 98.56"><defs><style>.cls-1{fill:#a1d9b1;}.cls-2{fill:#4d5152;}.cls-3{fill:#fff;}.cls-4{fill:#ffb957;}</style></defs><title>egg-free</title><circle class="cls-1" cx="49.28" cy="49.28" r="48"/><path class="cls-2" d="M49.28,98.56A49.28,49.28,0,1,1,98.56,49.28,49.34,49.34,0,0,1,49.28,98.56Zm0-96A46.72,46.72,0,1,0,96,49.28,46.77,46.77,0,0,0,49.28,2.56Z"/><g id="egg-free-egg"><path class="cls-3" d="M25.32,47.27c2.29-14.35,12.68-28.72,24-28.72s21.67,14.36,24,28.72C76.07,65,65.87,80,49.28,80S22.48,65,25.32,47.27Z"/><path class="cls-2" d="M49.28,81.28a24.47,24.47,0,0,1-19-8.54c-5.54-6.5-7.82-15.85-6.25-25.67,2.3-14.39,13-29.79,25.22-29.79S72.21,32.69,74.5,47.07c1.57,9.82-.71,19.18-6.25,25.67A24.48,24.48,0,0,1,49.28,81.28Zm0-61.44c-8.83,0-20.05,11.11-22.69,27.64-1.45,9.08.62,17.68,5.67,23.61a21.67,21.67,0,0,0,17,7.64,21.67,21.67,0,0,0,17-7.64c5.05-5.92,7.12-14.53,5.67-23.61C69.34,30.94,58.11,19.84,49.28,19.84Z"/><path class="cls-4" d="M48.9,38.06a16,16,0,1,0,16,16A16,16,0,0,0,48.9,38.06Z"/><path class="cls-2" d="M48.9,71.34A17.28,17.28,0,1,1,66.18,54.06,17.3,17.3,0,0,1,48.9,71.34Zm0-32A14.72,14.72,0,1,0,63.62,54.06,14.74,14.74,0,0,0,48.9,39.34Z"/><path class="cls-4" d="M41.49,57.81c-3.19-7,3.74-14,8.15-10.83"/><path class="cls-2" d="M41.49,59.09a1.28,1.28,0,0,1-1.17-.75A9.9,9.9,0,0,1,42.89,46.6c2.41-2,5.28-2.23,7.48-.66A1.28,1.28,0,0,1,48.89,48c-1.83-1.31-3.81.09-4.37,0.55a7.33,7.33,0,0,0-1.86,8.7A1.28,1.28,0,0,1,41.49,59.09Z"/></g></svg>