<svg id="fish-free" xmlns="http://www.w3.org/2000/svg" viewBox="0 0 98.56 98.56"><defs><style>.cls-1{fill:#fffde3;}.cls-2{fill:#4d5152;}.cls-3{fill:#fff;}.cls-4{fill:#ffb957;}.cls-5{fill:#a1d9b1;}</style></defs><title>fish</title><circle class="cls-1" cx="49.28" cy="49.28" r="48"/><path class="cls-2" d="M49.28,98.56A49.28,49.28,0,1,1,98.56,49.28,49.34,49.34,0,0,1,49.28,98.56Zm0-96A46.72,46.72,0,1,0,96,49.28,46.77,46.77,0,0,0,49.28,2.56Z"/><g id="fish-free-fish"><path class="cls-3" d="M33.77,36.12c-8.28,2.76-13.93,9.41-13.93,13.16s5.65,10.4,13.93,13.16a25.05,25.05,0,0,0,3.54-13.16A24.67,24.67,0,0,0,33.77,36.12Z"/><path class="cls-4" d="M39.23,49.92V49.28a26.79,26.79,0,0,0-3.45-13.54L35.34,35l0.86-.19a24.38,24.38,0,0,1,5.18-.57c10,0,18.78,4.6,21.41,11.18A2.55,2.55,0,0,0,65,47h0.12a2.54,2.54,0,0,0,2.27-1.37,23.88,23.88,0,0,1,3.91-5.75c2.35-2.35,4.79-3.18,6.17-3.18a2.12,2.12,0,0,1,1.44.45c1,1,.39,4.49-2.69,7.57l0,0a78.18,78.18,0,0,1-8.33,3.91,0.64,0.64,0,0,0-.39.59v0.64H39.23Z"/><path class="cls-5" d="M41.39,63.69c9.72,0,18.27-4.44,20.8-10.79a3.18,3.18,0,0,1,2.8-2h0.16A3.16,3.16,0,0,1,68,52.61a23,23,0,0,0,3.81,5.61c2.21,2.21,4.46,3,5.71,3a1.48,1.48,0,0,0,1-.27c0.58-.58.33-3.64-2.73-6.7-0.6-.58-4.68-2.42-8.11-3.79a1.28,1.28,0,0,1-.81-1.17h-27a28,28,0,0,1-3.54,13.86A23.68,23.68,0,0,0,41.39,63.69Z"/><path class="cls-2" d="M41.39,66.25c-13.31,0-24.11-10.27-24.11-17,0-3.36,2.75-7.58,7.19-11a28,28,0,0,1,16.92-6c10.74,0,20.28,5.1,23.19,12.39a0.62,0.62,0,0,0,.55.39h0a0.63,0.63,0,0,0,.58-0.34A25.71,25.71,0,0,1,70,38.52c2.34-2.34,5.16-3.74,7.53-3.74a3.85,3.85,0,0,1,2.79,1c1,1,1.27,2.78.68,4.82a13.23,13.23,0,0,1-3.4,5.5c-0.61.61-3.48,2-6.16,3.13,2.4,1,5.35,2.38,6.15,3.19,3.54,3.53,4.78,8.26,2.73,10.32a3.84,3.84,0,0,1-2.79,1c-2.37,0-5.18-1.4-7.52-3.74a25.46,25.46,0,0,1-4.27-6.25,0.61,0.61,0,0,0-.55-0.33,0.63,0.63,0,0,0-.58.39C61.66,61.15,52.13,66.25,41.39,66.25Zm0-31.39c-12.23,0-21.55,9.61-21.55,14.41s9.32,14.41,21.55,14.41c9.72,0,18.27-4.44,20.8-10.79a3.18,3.18,0,0,1,2.8-2h0.16A3.16,3.16,0,0,1,68,52.61a23,23,0,0,0,3.81,5.61c3,3,6.07,3.35,6.7,2.73s0.33-3.64-2.73-6.7c-0.6-.58-4.68-2.42-8.11-3.79a1.28,1.28,0,0,1,0-2.37,78.52,78.52,0,0,0,8.17-3.82,10.62,10.62,0,0,0,2.72-4.37,2.7,2.7,0,0,0,0-2.3c-0.63-.63-3.7-0.27-6.7,2.73A23.26,23.26,0,0,0,68,45.93a3.17,3.17,0,0,1-2.83,1.72H65a3.19,3.19,0,0,1-2.8-2C59.66,39.3,51.11,34.87,41.39,34.87Z"/><path class="cls-2" d="M34.77,65.48l-2-1.57a24.22,24.22,0,0,0,4.57-14.63A24,24,0,0,0,32.86,34.8l2-1.55a26.55,26.55,0,0,1,5,16A26.81,26.81,0,0,1,34.77,65.48Z"/><path class="cls-2" d="M30.83,45.87a2.24,2.24,0,1,1,2.24-2.24A2.24,2.24,0,0,1,30.83,45.87Zm0-2.56a0.32,0.32,0,1,0,.32.32A0.32,0.32,0,0,0,30.83,43.31Z"/><path class="cls-4" d="M46.28,38.62s2.58,3.36,0,8.73"/><path class="cls-2" d="M46.28,48.63a1.28,1.28,0,0,1-1.15-1.83c2.17-4.53.21-7.29,0.13-7.41a1.28,1.28,0,0,1,2-1.55c0.12,0.16,3,4.05.14,10.06A1.28,1.28,0,0,1,46.28,48.63Z"/><path class="cls-2" d="M46.28,61.22a1.28,1.28,0,0,1-1.15-1.83c2.17-4.53.21-7.29,0.13-7.41a1.28,1.28,0,0,1,2-1.55c0.12,0.16,3,4.05.14,10.06A1.28,1.28,0,0,1,46.28,61.22Z"/><path class="cls-2" d="M53.69,54.37a1.28,1.28,0,0,1-1.15-1.83c2.21-4.61.16-7.37,0.14-7.4a1.28,1.28,0,1,1,2-1.56c0.13,0.16,3,4.06.14,10.06A1.28,1.28,0,0,1,53.69,54.37Z"/><path class="cls-2" d="M26.56,50.56H19.84a1.28,1.28,0,0,1,0-2.56h6.72A1.28,1.28,0,0,1,26.56,50.56Z"/></g></svg>