<svg id="soya-free" xmlns="http://www.w3.org/2000/svg" viewBox="0 0 98.56 98.56"><defs><style>.cls-1{fill:#fffde3;}.cls-2{fill:#4d5152;}.cls-3{fill:#ffb957;}</style></defs><title>g6pd</title><circle class="cls-1" cx="49.28" cy="49.28" r="48"/><path class="cls-2" d="M49.28,98.56A49.28,49.28,0,1,1,98.56,49.28,49.34,49.34,0,0,1,49.28,98.56Zm0-96A46.72,46.72,0,1,0,96,49.28,46.77,46.77,0,0,0,49.28,2.56Z"/><path class="cls-3" d="M48.1,52.81a5.44,5.44,0,1,0,7.69-.14A5.45,5.45,0,0,0,48.1,52.81Z"/><path class="cls-2" d="M47.35,61.42a6.72,6.72,0,1,1,9.5-.17A6.73,6.73,0,0,1,47.35,61.42Zm7.55-7.83A4.16,4.16,0,1,0,55,59.47,4.16,4.16,0,0,0,54.9,53.59Z"/><path class="cls-3" d="M60.48,49.41a5.44,5.44,0,1,0,7.69-.14A5.45,5.45,0,0,0,60.48,49.41Z"/><path class="cls-2" d="M59.73,58a6.72,6.72,0,1,1,9.5-.17A6.73,6.73,0,0,1,59.73,58Zm7.56-7.83a4.16,4.16,0,1,0,.1,5.88A4.16,4.16,0,0,0,67.28,50.2Z"/><path class="cls-3" d="M50.78,40.65a5.44,5.44,0,1,0,7.66-.7A5.44,5.44,0,0,0,50.78,40.65Z"/><path class="cls-2" d="M50.66,49.29a6.72,6.72,0,1,1,9.46-.87A6.73,6.73,0,0,1,50.66,49.29Zm7-8.36a4.16,4.16,0,1,0,.54,5.86A4.16,4.16,0,0,0,57.62,40.93Z"/><path class="cls-3" d="M54.3,28.22a5.44,5.44,0,1,0,7.66-.7A5.45,5.45,0,0,0,54.3,28.22Z"/><path class="cls-2" d="M54.18,36.86A6.72,6.72,0,1,1,63.64,36,6.73,6.73,0,0,1,54.18,36.86Zm7-8.36a4.16,4.16,0,1,0,.54,5.86A4.16,4.16,0,0,0,61.13,28.5Z"/><path class="cls-3" d="M63.61,37.73a5.44,5.44,0,1,0,7.66-.7A5.45,5.45,0,0,0,63.61,37.73Z"/><path class="cls-2" d="M63.49,46.38A6.72,6.72,0,1,1,73,45.51,6.73,6.73,0,0,1,63.49,46.38Zm7-8.36A4.16,4.16,0,1,0,71,43.87,4.16,4.16,0,0,0,70.45,38Z"/><path class="cls-3" d="M41.73,31.11a5.44,5.44,0,1,0,7.66-.7A5.44,5.44,0,0,0,41.73,31.11Z"/><path class="cls-2" d="M41.61,39.75a6.72,6.72,0,1,1,9.46-.87A6.73,6.73,0,0,1,41.61,39.75Zm7-8.36a4.16,4.16,0,1,0,.54,5.86A4.16,4.16,0,0,0,48.57,31.39Z"/><path class="cls-3" d="M47,49.86a5.44,5.44,0,1,0-7.6-1.19A5.45,5.45,0,0,0,47,49.86Z"/><path class="cls-2" d="M49.22,41.51A6.72,6.72,0,1,1,39.83,40,6.73,6.73,0,0,1,49.22,41.51Zm-8.79,6.41a4.16,4.16,0,1,0,.91-5.81A4.16,4.16,0,0,0,40.43,47.92Z"/><path class="cls-3" d="M34.22,51.07a5.44,5.44,0,1,0-7.6-1.19A5.45,5.45,0,0,0,34.22,51.07Z"/><path class="cls-2" d="M36.45,42.72a6.72,6.72,0,1,1-9.39-1.47A6.73,6.73,0,0,1,36.45,42.72Zm-8.79,6.41a4.16,4.16,0,1,0,.91-5.81A4.16,4.16,0,0,0,27.66,49.13Z"/><path class="cls-3" d="M42.27,61.37a5.44,5.44,0,1,0-7.67-.63A5.44,5.44,0,0,0,42.27,61.37Z"/><path class="cls-2" d="M43.87,52.88a6.72,6.72,0,1,1-9.47-.77A6.73,6.73,0,0,1,43.87,52.88Zm-8.29,7a4.16,4.16,0,1,0,.48-5.86A4.16,4.16,0,0,0,35.58,59.92Z"/><path class="cls-3" d="M36.67,73A5.44,5.44,0,1,0,29,72.39,5.45,5.45,0,0,0,36.67,73Z"/><path class="cls-2" d="M38.27,64.52a6.72,6.72,0,1,1-9.47-.78A6.73,6.73,0,0,1,38.27,64.52Zm-8.29,7a4.16,4.16,0,1,0,.48-5.86A4.16,4.16,0,0,0,30,71.56Z"/><path class="cls-3" d="M29.13,62a5.44,5.44,0,1,0-7.67-.63A5.45,5.45,0,0,0,29.13,62Z"/><path class="cls-2" d="M30.73,53.54a6.72,6.72,0,1,1-9.47-.77A6.73,6.73,0,0,1,30.73,53.54Zm-8.29,7a4.16,4.16,0,1,0,.48-5.86A4.16,4.16,0,0,0,22.44,60.59Z"/><path class="cls-3" d="M49.54,72.33a5.44,5.44,0,1,0-7.67-.63A5.44,5.44,0,0,0,49.54,72.33Z"/><path class="cls-2" d="M51.15,63.84a6.72,6.72,0,1,1-9.47-.77A6.73,6.73,0,0,1,51.15,63.84Zm-8.29,7A4.16,4.16,0,1,0,43.33,65,4.16,4.16,0,0,0,42.85,70.87Z"/><path class="cls-3" d="M28.36,30.57a5.44,5.44,0,1,0,7.66-.7A5.44,5.44,0,0,0,28.36,30.57Z"/><path class="cls-2" d="M28.24,39.21a6.72,6.72,0,1,1,9.46-.87A6.73,6.73,0,0,1,28.24,39.21Zm7-8.36a4.16,4.16,0,1,0,.54,5.86A4.16,4.16,0,0,0,35.2,30.85Z"/><path class="cls-3" d="M54.64,63.43a5.44,5.44,0,1,0,7.66-.7A5.44,5.44,0,0,0,54.64,63.43Z"/><path class="cls-2" d="M54.52,72.08A6.72,6.72,0,1,1,64,71.21,6.73,6.73,0,0,1,54.52,72.08Zm7-8.36A4.16,4.16,0,1,0,62,69.57,4.16,4.16,0,0,0,61.48,63.72Z"/><path class="cls-3" d="M67.21,60.7a5.44,5.44,0,1,0,7.66-.7A5.44,5.44,0,0,0,67.21,60.7Z"/><path class="cls-2" d="M67.09,69.35a6.72,6.72,0,1,1,9.46-.87A6.73,6.73,0,0,1,67.09,69.35Zm7-8.36a4.16,4.16,0,1,0,.54,5.86A4.16,4.16,0,0,0,74.05,61Z"/></svg>