<svg id="lactose-free" xmlns="http://www.w3.org/2000/svg" viewBox="0 0 98.56 98.56"><defs><style>.cls-1{fill:#a1d9b1;}.cls-2{fill:#4d5152;}.cls-3{fill:#ccc;}.cls-4{fill:#fff;}.cls-5{fill:#ffb957;}.cls-6{fill:#b3b3b3;}.cls-7{fill:#e6e6e6;}</style></defs><title>milk</title><circle class="cls-1" cx="49.28" cy="49.28" r="48"/><path class="cls-2" d="M49.28,98.56A49.28,49.28,0,1,1,98.56,49.28,49.34,49.34,0,0,1,49.28,98.56Zm0-96A46.72,46.72,0,1,0,96,49.28,46.77,46.77,0,0,0,49.28,2.56Z"/><g id="lactose-free-lactose"><g id="lactose-free-bottle"><path class="cls-3" d="M38.86,22.95v3.29c0,4.39,5.48,17.55,5.48,20.85V76.71A3.29,3.29,0,0,1,41,80H25.69a3.29,3.29,0,0,1-3.29-3.29V47.09c0-3.29,5.48-16.46,5.48-20.85V22.95"/><path class="cls-4" d="M38.86,31.27s5.48,12.52,5.48,15.82V76.71A3.29,3.29,0,0,1,41,80H25.69a3.29,3.29,0,0,1-3.29-3.29V47.09c0-3.29,5.48-15.82,5.48-15.82"/><polyline class="cls-5" points="22.4 66.83 22.4 49.28 44.34 49.28"/><polyline class="cls-5" points="44.34 49.28 44.34 66.83 22.4 66.83"/><path class="cls-2" d="M41,81.28H25.69a4.58,4.58,0,0,1-4.57-4.57V47.09c0-1.73,1.16-5.33,2.51-9.49s3-9.2,3-11.35V22.95h2.56v3.29c0,2.55-1.57,7.43-3.1,12.14-1.17,3.63-2.39,7.38-2.39,8.71V76.71a2,2,0,0,0,2,2H41a2,2,0,0,0,2-2V47.09c0-1.33-1.21-5.08-2.39-8.71-1.52-4.71-3.1-9.59-3.1-12.14V22.95h2.56v3.29c0,2.15,1.58,7,3,11.35s2.51,7.76,2.51,9.49V76.71A4.58,4.58,0,0,1,41,81.28Z"/><rect class="cls-2" x="22.4" y="48" width="21.94" height="2.56"/><rect class="cls-2" x="22.4" y="65.55" width="21.94" height="2.56"/><path class="cls-6" d="M27.88,18.56h11a2.19,2.19,0,0,1,0,4.39h-11A2.19,2.19,0,0,1,27.88,18.56Z"/><path class="cls-2" d="M38.86,24.23h-11a3.47,3.47,0,0,1,0-6.95h11A3.47,3.47,0,0,1,38.86,24.23Zm-11-4.39a0.91,0.91,0,0,0,0,1.83h11a0.91,0.91,0,0,0,0-1.83h-11Z"/><rect class="cls-2" x="26.97" y="54.08" width="12.8" height="2.56"/><rect class="cls-2" x="26.97" y="58.56" width="5.12" height="2.56"/><rect class="cls-2" x="35.93" y="58.56" width="3.84" height="2.56"/></g><g id="lactose-free-pot"><path class="cls-4" d="M55.57,52.12s0.07,2.43-3.18,5.19c-8.3,7-5.25,22.61,4.53,22.69h9.9c9.78-.08,12.83-15.67,4.53-22.69-3.25-2.75-3.18-5.19-3.18-5.19"/><polyline class="cls-7" points="55.57 52.12 52.39 57.31 71.35 57.31 68.17 52.12"/><path class="cls-2" d="M62,81.28H56.92c-4.37,0-8-2.84-9.67-7.5C45.41,68.69,46,61.06,51.56,56.33c2.67-2.26,2.73-4.12,2.73-4.2a1.29,1.29,0,0,1,1.27-1.27h0a1.27,1.27,0,0,1,1.28,1.23c0,0.31,0,3.14-3.63,6.2-4.45,3.77-5.16,10.21-3.56,14.62,1.33,3.67,4,5.79,7.28,5.81h9.89c3.29,0,5.94-2.14,7.27-5.81,1.6-4.42.89-10.86-3.56-14.62-3.62-3.06-3.65-5.89-3.64-6.2a1.28,1.28,0,0,1,1.28-1.24h0a1.28,1.28,0,0,1,1.24,1.32s0.07,1.92,2.73,4.17c5.59,4.73,6.16,12.36,4.31,17.45-1.69,4.66-5.3,7.47-9.66,7.5H62Z"/><path class="cls-6" d="M60.48,52.12h7.69a2.07,2.07,0,0,0,2.06-2.06h0A2.07,2.07,0,0,0,68.17,48H55.8a2.07,2.07,0,0,0-2.06,2.06h0a2.07,2.07,0,0,0,2.06,2.06h4.9"/><path class="cls-2" d="M68.17,53.4H55.8a3.34,3.34,0,0,1,0-6.68H68.17A3.34,3.34,0,1,1,68.17,53.4Zm-7.69-2.56h7.69a0.78,0.78,0,0,0,0-1.56H55.8a0.78,0.78,0,0,0,0,1.56h4.69Z"/><path class="cls-5" d="M65.11,61.44h9.47a15.41,15.41,0,0,1,.53,12.37h-10A2.07,2.07,0,0,1,63,71.75V63.51A2.07,2.07,0,0,1,65.11,61.44Z"/><path class="cls-2" d="M76,75.09H65.11a3.35,3.35,0,0,1-3.34-3.34V63.51a3.35,3.35,0,0,1,3.34-3.34H75.37l0.35,0.71a16.74,16.74,0,0,1,.57,13.43ZM65.11,62.72a0.79,0.79,0,0,0-.78.78v8.25a0.79,0.79,0,0,0,.78.78h9.11a14.21,14.21,0,0,0-.45-9.81H65.11Z"/></g></g></svg>