<svg id="crustean-free" xmlns="http://www.w3.org/2000/svg" viewBox="0 0 98.56 98.56"><defs><style>.cls-1{fill:#a1d9b1;}.cls-2{fill:#4d5152;}.cls-3{fill:#ffb957;}.cls-4{fill:#fffde3;}</style></defs><title>shell</title><circle class="cls-1" cx="49.28" cy="49.28" r="48"/><path class="cls-2" d="M49.28,98.56A49.28,49.28,0,1,1,98.56,49.28,49.34,49.34,0,0,1,49.28,98.56Zm0-96A46.72,46.72,0,1,0,96,49.28,46.77,46.77,0,0,0,49.28,2.56Z"/><g id="crustean-free-scollop"><path class="cls-3" d="M79.82,49.05c-0.72-4-2.21-7.46-5.39-4.9,0,0,4.12-5.79.6-10.4-2.1-2.75-5.53-2.22-6.35,0l0.82-2.26a5.55,5.55,0,0,0-2-6.4c-3.66-2.65-9-.57-9.58,3.77l0-.28a8.68,8.68,0,1,0-17.29,0l0,0.27c-0.63-4.33-5.93-6.41-9.58-3.76a5.55,5.55,0,0,0-2,6.4l0.82,2.26c-0.82-2.26-4.25-2.79-6.35,0-3.52,4.61.6,10.4,0.6,10.4-3.17-2.56-4.67.88-5.39,4.9-0.89,5,1.63,7,4.67,9.69L38.35,71.92H60.21L75.15,58.74C78.19,56.09,80.71,54,79.82,49.05Z"/><path class="cls-2" d="M60.21,73.2H38.35a1.28,1.28,0,0,1-.85-0.32L22.4,59.56c-3-2.65-5.91-5.15-4.92-10.73,0.29-1.6,1.13-6.3,4.13-6.8-0.91-2.4-1.5-5.91.9-9.06a5.64,5.64,0,0,1,5-2.34,6.84,6.84,0,0,1,2.82-6.54,7.53,7.53,0,0,1,9.41.49,9.45,9.45,0,0,1,1.83-3.21,10.29,10.29,0,0,1,15.4,0,9.46,9.46,0,0,1,1.83,3.21,7.53,7.53,0,0,1,9.41-.49A6.84,6.84,0,0,1,71,30.63a5.64,5.64,0,0,1,5,2.34c2.4,3.15,1.82,6.66.9,9.06,3,0.49,3.84,5.19,4.12,6.8,1,5.58-1.88,8.08-4.92,10.73L76,59.71,61.06,72.88A1.28,1.28,0,0,1,60.21,73.2ZM38.83,70.64h20.9l14.75-13c2.91-2.53,4.83-4.2,4.08-8.35-0.67-3.73-1.65-4.73-2.12-4.73a2.1,2.1,0,0,0-1.2.6,1.28,1.28,0,0,1-1.85-1.74s3.52-5.09.63-8.88a3.14,3.14,0,0,0-2.43-1.36,1.72,1.72,0,0,0-1.7,1.06,1.28,1.28,0,1,1-2.41-.87l0.82-2.26a4.27,4.27,0,0,0-1.58-4.93,4.85,4.85,0,0,0-2.87-.93,4.62,4.62,0,0,0-4.7,3.84,1.28,1.28,0,0,1-2.53-.36l0-.28A6.68,6.68,0,0,0,55,23a7.73,7.73,0,0,0-11.53,0,6.67,6.67,0,0,0-1.61,5.39l0,0.27h0a1.28,1.28,0,0,1-2.53.37,4.62,4.62,0,0,0-4.7-3.84,4.85,4.85,0,0,0-2.87.93,4.27,4.27,0,0,0-1.58,4.93l0.82,2.26a1.28,1.28,0,1,1-2.41.87A1.72,1.72,0,0,0,27,33.16a3.15,3.15,0,0,0-2.43,1.36c-2.91,3.81.59,8.83,0.63,8.88a1.28,1.28,0,0,1-1.85,1.74,2.1,2.1,0,0,0-1.2-.6c-0.48,0-1.46,1-2.13,4.73-0.74,4.15,1.18,5.82,4.08,8.35l0.17,0.15Z"/><rect class="cls-2" x="43.59" y="27.86" width="2.56" height="43.43" transform="translate(-8.96 9.92) rotate(-11.47)"/><rect class="cls-2" x="32.11" y="47.81" width="43.43" height="2.56" transform="translate(-5 92.07) rotate(-78.52)"/><rect class="cls-2" x="37.62" y="50.45" width="43.19" height="2.56" transform="translate(-14.08 80.19) rotate(-62.36)"/><rect class="cls-2" x="43.47" y="56.27" width="36.71" height="2.56" transform="translate(-22.47 62.8) rotate(-46.52)"/><rect class="cls-2" x="38.03" y="30.2" width="2.56" height="43.06" transform="translate(-19.35 23.8) rotate(-27.31)"/><rect class="cls-2" x="35.27" y="38.81" width="2.56" height="37.04" transform="translate(-29.3 40.42) rotate(-43.08)"/><path class="cls-4" d="M38.59,78.78c-0.94,0-1.95-1.39-1.95-3.45s1-3.59,1.95-3.59H60c0.92,0,1.95,1.53,1.95,3.59s-1,3.45-1.95,3.45H38.59Z"/><path class="cls-2" d="M59.88,73a3.18,3.18,0,0,1,.76,2.31,2.87,2.87,0,0,1-.72,2.17H38.64a2.87,2.87,0,0,1-.72-2.17A3.17,3.17,0,0,1,38.68,73h21.2M60,70.46H38.59c-1.78,0-3.23,2.18-3.23,4.87s1.44,4.73,3.23,4.73H60c1.78,0,3.23-2,3.23-4.73S61.75,70.46,60,70.46h0Z"/><path class="cls-3" d="M49.28,67.6A27.51,27.51,0,0,1,59.4,69.87l-7.81,8.58a3.34,3.34,0,0,1-4.63,0l-7.81-8.58A27.52,27.52,0,0,1,49.28,67.6Z"/><path class="cls-2" d="M49.28,80.66A4.38,4.38,0,0,1,46,79.31L37,69.36l1.72-.68a28.69,28.69,0,0,1,10.6-2.36,28.66,28.66,0,0,1,10.6,2.36l1.72,0.68-9.05,10A4.38,4.38,0,0,1,49.28,80.66ZM41.37,70.4l6.54,7.19a2.18,2.18,0,0,0,2.73,0l6.54-7.19a23.89,23.89,0,0,0-7.91-1.52A23.9,23.9,0,0,0,41.37,70.4Z"/></g></svg>