<svg id="soya-free" xmlns="http://www.w3.org/2000/svg" viewBox="0 0 98.56 98.56"><defs><style>.cls-1{fill:#fffde3;}.cls-2{fill:#4d5152;}.cls-3{fill:#a1d9b1;}.cls-4{fill:#ffb957;}</style></defs><title>soy</title><circle class="cls-1" cx="49.28" cy="49.28" r="48"/><path class="cls-2" d="M49.28,98.56A49.28,49.28,0,1,1,98.56,49.28,49.34,49.34,0,0,1,49.28,98.56Zm0-96A46.72,46.72,0,1,0,96,49.28,46.77,46.77,0,0,0,49.28,2.56Z"/><g id="soya-free-soya"><path class="cls-3" d="M33.26,74.78c0.31,0,.63,0,0.94,0a10.64,10.64,0,0,0,10.14-7.66l0-.15c0.76-2.63,1.47-4.3,2.95-5.54A13,13,0,0,1,52,59.43l0.15-.05a10.7,10.7,0,0,0,7.25-7.24l0-.13c0.77-2.65,1.47-4.32,3-5.56a13,13,0,0,1,4.62-2l0.15-.05a10.64,10.64,0,0,0,7.67-10.13c0-.28,0-0.56,0-0.84a1.52,1.52,0,0,1,0-.16c0.21-7.84,2.7-10.84,3.31-11.47l0.07-.07A0.91,0.91,0,0,0,78.46,21a0.92,0.92,0,0,0-1.58-.62c-3.31,3.06-7.64,3.36-11.43,3.39H65.29c-0.31,0-.62,0-0.94,0a10.63,10.63,0,0,0-10.14,7.66l-0.05.14c-0.76,2.64-1.47,4.31-3,5.55a13,13,0,0,1-4.62,2l-0.15.05A10.41,10.41,0,0,0,42.83,41a10.54,10.54,0,0,0-3.65,5.39l-0.05.14c-0.77,2.64-1.47,4.31-3,5.55a13,13,0,0,1-4.62,2l-0.15.05a10.64,10.64,0,0,0-7.67,10.13c0,0.29,0,.57,0,0.84a1.41,1.41,0,0,1,0,.17c-0.22,8.15-2.86,11-3.39,11.54a0.9,0.9,0,0,0-.28.65,0.92,0.92,0,0,0,1.58.62c3.31-3.06,7.63-3.36,11.43-3.39h0.16Z"/><path class="cls-2" d="M21,79.73A2.18,2.18,0,0,1,19.51,76c0.28-.26,2.77-2.85,3-10.64,0-.34,0-0.65,0-1A11.92,11.92,0,0,1,31,53l0.15-.05a11.94,11.94,0,0,0,4.18-1.81c1.23-1,1.84-2.52,2.53-4.91l0-.14A11.83,11.83,0,0,1,42,40a11.68,11.68,0,0,1,4-2.07l0.15-.05a11.92,11.92,0,0,0,4.18-1.82c1.22-1,1.83-2.51,2.53-4.9L53,31a11.91,11.91,0,0,1,11.38-8.59c0.36,0,.71,0,1.06.05,3.58,0,7.63-.3,10.6-3.05A2.2,2.2,0,0,1,79.74,21a2.17,2.17,0,0,1-.68,1.58c-0.5.51-2.79,3.2-3,10.65,0,0.34,0,.65,0,1a11.92,11.92,0,0,1-8.6,11.36l-0.15.05a11.94,11.94,0,0,0-4.17,1.81c-1.23,1-1.84,2.52-2.53,4.92l0,0.1a11.88,11.88,0,0,1-4.12,6.09,11.76,11.76,0,0,1-4,2.07l-0.15,0a12.14,12.14,0,0,0-4.19,1.82c-1.22,1-1.83,2.51-2.52,4.9l0,0.13a11.92,11.92,0,0,1-11.38,8.6c-0.36,0-.71,0-1.06-0.06-3.58,0-7.62.31-10.6,3.05A2.2,2.2,0,0,1,21,79.73ZM32,55.38l-0.24.08A9.37,9.37,0,0,0,25,64.35c0,0.25,0,.5,0,0.74a2.8,2.8,0,0,1,0,.31c-0.14,5.24-1.25,8.47-2.27,10.35,3.26-2,7-2.22,10.32-2.25h0.28a9.33,9.33,0,0,0,9.75-6.69l0.07-.2c0.81-2.78,1.62-4.67,3.34-6.11a14.12,14.12,0,0,1,5-2.29l0.2-.07a9.42,9.42,0,0,0,6.38-6.37l0.06-.18c0.81-2.79,1.63-4.7,3.36-6.15a14.12,14.12,0,0,1,5-2.28l0.21-.07a9.36,9.36,0,0,0,6.74-8.9c0-.25,0-0.49,0-0.74a2.68,2.68,0,0,1,0-.31c0.14-5.25,1.28-8.49,2.29-10.36-3.27,2-7,2.23-10.35,2.27H65.17c-0.26,0-.54,0-0.82,0a9.35,9.35,0,0,0-8.91,6.73c0,0.08,0,.14-0.07.21-0.81,2.78-1.62,4.68-3.35,6.12a14.1,14.1,0,0,1-5,2.28l-0.21.07A9.15,9.15,0,0,0,43.62,42a9.26,9.26,0,0,0-3.22,4.74c0,0.07,0,.14-0.07.21-0.81,2.78-1.62,4.68-3.35,6.12A14.09,14.09,0,0,1,32,55.38Z"/><path class="cls-4" d="M28.77,64.35a5.44,5.44,0,1,0,5.44-5.44A5.44,5.44,0,0,0,28.77,64.35Z"/><path class="cls-2" d="M34.21,71.07a6.72,6.72,0,1,1,6.72-6.72A6.73,6.73,0,0,1,34.21,71.07Zm0-10.88a4.16,4.16,0,1,0,4.16,4.16A4.16,4.16,0,0,0,34.21,60.19Z"/><path class="cls-4" d="M43.81,49.31a5.44,5.44,0,1,0,5.44-5.44A5.45,5.45,0,0,0,43.81,49.31Z"/><path class="cls-2" d="M49.24,56A6.72,6.72,0,1,1,56,49.31,6.73,6.73,0,0,1,49.24,56Zm0-10.88a4.16,4.16,0,1,0,4.16,4.16A4.16,4.16,0,0,0,49.24,45.15Z"/><path class="cls-4" d="M58.84,34.27a5.44,5.44,0,1,0,5.44-5.44A5.45,5.45,0,0,0,58.84,34.27Z"/><path class="cls-2" d="M64.28,41A6.72,6.72,0,1,1,71,34.27,6.73,6.73,0,0,1,64.28,41Zm0-10.88a4.16,4.16,0,1,0,4.16,4.16A4.16,4.16,0,0,0,64.28,30.11Z"/></g></svg>