<svg id="gluten-free" xmlns="http://www.w3.org/2000/svg" viewBox="0 0 98.56 98.56"><defs><style>.cls-1{fill:#fffde3;}.cls-2{fill:#4d5152;}.cls-3{fill:#a1d9b1;}.cls-4{fill:#ffb957;}</style></defs><title>wheat</title><circle class="cls-1" cx="49.28" cy="49.28" r="48"/><path class="cls-2" d="M49.28,98.56A49.28,49.28,0,1,1,98.56,49.28,49.34,49.34,0,0,1,49.28,98.56Zm0-96A46.72,46.72,0,1,0,96,49.28,46.77,46.77,0,0,0,49.28,2.56Z"/><circle id="gluten-free-inner-color" class="cls-3" cx="49.28" cy="49.28" r="25.6"/><g id="gluten-free-gluten"><path class="cls-4" d="M48.7,44.23a0.61,0.61,0,0,0,.42.17,0.6,0.6,0,0,0,.4-0.15c0.15-.13,3.67-3.21,3.76-7.22S50,29.79,49.85,29.66a0.61,0.61,0,0,0-.82,0c-0.15.13-3.67,3.21-3.76,7.22S48.56,44.1,48.7,44.23Z"/><path class="cls-2" d="M49.13,45.68a1.89,1.89,0,0,1-1.3-.52c-0.41-.38-3.93-3.86-3.83-8.34s3.78-7.79,4.2-8.16a1.94,1.94,0,0,1,2.54.06c0.16,0.15,3.93,3.76,3.83,8.33s-3.78,7.79-4.2,8.16A1.88,1.88,0,0,1,49.13,45.68ZM49.41,31c-0.89.92-2.8,3.2-2.86,5.83s1.74,5,2.59,6c0.9-.93,2.8-3.2,2.86-5.83S50.26,32,49.41,31Z"/><path class="cls-4" d="M37.22,63.25a0.58,0.58,0,0,0-.61.56c0,0.24-.05,5.83,3.21,9.37a10.39,10.39,0,0,0,9.45,3.54c0.27,0,0-.26,0-0.53C49.26,76.09,49.69,64,37.22,63.25Z"/><path class="cls-2" d="M47.75,78.13A11.83,11.83,0,0,1,38.88,74c-3.69-4-3.55-10.22-3.55-10.28A1.85,1.85,0,0,1,37.18,62H37.3c11.25,0.72,13.36,10.23,13.24,14.1A1.37,1.37,0,0,1,49.48,78,10.24,10.24,0,0,1,47.75,78.13ZM37.91,64.59c0.1,1.57.59,5.27,2.85,7.72A9.37,9.37,0,0,0,48,75.57C47.89,73.37,47,65.59,37.91,64.59Z"/><path class="cls-4" d="M61.34,63.25a0.58,0.58,0,0,1,.62.56c0,0.24.05,5.83-3.22,9.37a10.39,10.39,0,0,1-9.45,3.54c-0.27,0,0-.26,0-0.53C49.3,76.09,48.87,64,61.34,63.25Z"/><path class="cls-2" d="M50.81,78.13A10.24,10.24,0,0,1,49.08,78,1.37,1.37,0,0,1,48,76.05c0-1.72.46-13.27,13.24-14.08h0.12a1.86,1.86,0,0,1,1.86,1.78c0,0.28.11,6.32-3.55,10.3A11.84,11.84,0,0,1,50.81,78.13Zm-0.23-2.56h0.23a9.33,9.33,0,0,0,7-3.26c2.29-2.48,2.76-6.16,2.85-7.72C51.62,65.56,50.67,73.34,50.59,75.57Z"/><path class="cls-4" d="M39,51.8a0.58,0.58,0,0,0-.63.54c0,0.21-.19,5.18,2.65,8.4a11.89,11.89,0,0,0,5.94,3.5,21.4,21.4,0,0,0,2.35,0c0.27,0,0-.28,0-0.55C49.29,63.55,49.9,52.84,39,51.8Z"/><path class="cls-2" d="M48.06,65.53l-1.38,0A13.15,13.15,0,0,1,40,61.58c-3.26-3.69-3-9.26-3-9.32a1.86,1.86,0,0,1,1.85-1.75h0.17c10,0.95,11.67,9.56,11.48,13a1.44,1.44,0,0,1-.09,1.23,1.38,1.38,0,0,1-1,.67A10.59,10.59,0,0,1,48.06,65.53Zm-1-2.57H48c0-2-.78-8.66-8.38-9.8,0.07,1.44.43,4.58,2.32,6.72A10.72,10.72,0,0,0,47.08,63Z"/><path class="cls-4" d="M59.59,51.8a0.58,0.58,0,0,1,.63.54c0,0.21.19,5.18-2.65,8.4a11.9,11.9,0,0,1-5.94,3.5,21.4,21.4,0,0,1-2.35,0c-0.27,0,0-.28,0-0.55C49.27,63.55,48.66,52.84,59.59,51.8Z"/><path class="cls-2" d="M50.5,65.53a10.57,10.57,0,0,1-1.39-.07,1.39,1.39,0,0,1-1-.67A1.43,1.43,0,0,1,48,63.56c-0.17-3.5,1.55-12.09,11.48-13h0.17a1.86,1.86,0,0,1,1.85,1.74c0,0.07.3,5.63-3,9.33a13.16,13.16,0,0,1-6.65,3.91l-0.25,0H50.5Zm8.43-12.37c-7.58,1.11-8.33,7.75-8.38,9.81h0.93a10.72,10.72,0,0,0,5.13-3.07C58.5,57.75,58.86,54.59,58.93,53.16Z"/><path class="cls-4" d="M48.25,52.8H48.6a0.58,0.58,0,0,0,.55-0.47c0-.09,1.62-10-8.47-12.16a0.56,0.56,0,0,0-.44.09,0.58,0.58,0,0,0-.25.38c0,0.21-.87,5.2,1.83,8.42C43.27,50.77,45.43,52.8,48.25,52.8Z"/><path class="cls-2" d="M48.25,54.08c-2.61,0-5-1.37-7.41-4.2-3-3.6-2.22-8.88-2.11-9.46a1.87,1.87,0,0,1,.8-1.22,1.85,1.85,0,0,1,1.42-.27c9.55,2,10,10.76,9.46,13.67a1.87,1.87,0,0,1-1.78,1.49H48.25ZM41.17,41.6C41.06,43,41,46.14,42.81,48.23S46.26,51.4,48,51.51C48.11,49.59,48,43.45,41.17,41.6Z"/><path class="cls-4" d="M50.31,52.8H50a0.58,0.58,0,0,1-.55-0.47c0-.09-1.62-10,8.47-12.16a0.58,0.58,0,0,1,.69.46c0,0.21.87,5.2-1.83,8.42C55.29,50.77,53.13,52.8,50.31,52.8Z"/><path class="cls-2" d="M50.31,54.08H49.93a1.85,1.85,0,0,1-1.78-1.49c-0.56-3.15.06-11.7,9.47-13.67a1.89,1.89,0,0,1,1.44.29,1.86,1.86,0,0,1,.77,1.2c0.11,0.6.92,5.86-2.11,9.48C55.34,52.71,52.91,54.08,50.31,54.08ZM57.39,41.6c-6.8,1.84-6.93,7.94-6.79,9.91,1.7-.11,3.39-1.19,5.15-3.28S57.5,43,57.39,41.6Z"/><path class="cls-2" d="M39.68,37.13a1.28,1.28,0,0,1-1.28-1.28V26.79a1.28,1.28,0,1,1,2.56,0v9.06A1.28,1.28,0,0,1,39.68,37.13Z"/><path class="cls-2" d="M44.48,30.47a1.28,1.28,0,0,1-1.28-1.28v-7a1.28,1.28,0,0,1,2.56,0v7A1.28,1.28,0,0,1,44.48,30.47Z"/><path class="cls-2" d="M54.08,30.47a1.28,1.28,0,0,1-1.28-1.28v-7a1.28,1.28,0,0,1,2.56,0v7A1.28,1.28,0,0,1,54.08,30.47Z"/><path class="cls-2" d="M49.28,26.59A1.28,1.28,0,0,1,48,25.31V18.56a1.28,1.28,0,0,1,2.56,0v6.76A1.28,1.28,0,0,1,49.28,26.59Z"/><path class="cls-2" d="M58.88,37.13a1.28,1.28,0,0,1-1.28-1.28V26.79a1.28,1.28,0,0,1,2.56,0v9.06A1.28,1.28,0,0,1,58.88,37.13Z"/><rect class="cls-2" x="48" y="45.44" width="2.56" height="34.56"/></g></svg>